<?xml version="1.0" standalone="no"?>
<!DOCTYPE svg PUBLIC "-//W3C//DTD SVG 20010904//EN"
 "http://www.w3.org/TR/2001/REC-SVG-20010904/DTD/svg10.dtd">
<svg version="1.0" xmlns="http://www.w3.org/2000/svg"
 width="150.000000pt" height="50.000000pt" viewBox="0 0 150.000000 50.000000"
 preserveAspectRatio="xMidYMid meet">
<metadata>
Created by potrace 1.10, written by Peter Selinger 2001-2011
</metadata>
<g transform="translate(0.000000,50.000000) scale(0.100000,-0.100000)"
fill="#d0cfcf" stroke="none">
<path d="M1270 373 c-14 -2 -37 -9 -52 -15 -27 -10 -28 -13 -28 -79 0 -64 -1
-69 -27 -81 -51 -24 -39 -88 16 -88 50 0 64 20 70 101 l6 74 38 3 c35 3 37 1
37 -25 0 -21 -8 -32 -30 -45 -52 -29 -33 -88 28 -88 42 0 53 30 50 141 l-3
104 -40 1 c-22 1 -51 0 -65 -3z m100 -103 c0 -94 -1 -100 -24 -115 -19 -13
-29 -14 -45 -5 -35 18 -22 53 23 61 15 3 19 14 20 52 1 52 -1 53 -76 41 l-38
-7 0 -78 c0 -70 -2 -80 -21 -90 -23 -12 -69 1 -69 20 0 16 31 41 51 41 17 0
19 8 19 78 l0 79 68 10 c37 5 73 11 80 11 9 2 12 -24 12 -98z"/>
<path d="M193 360 c31 -10 56 -36 57 -61 0 -22 60 -75 93 -83 21 -5 29 -14 34
-37 3 -18 9 -27 15 -21 18 18 -10 57 -58 82 -37 19 -54 36 -70 68 -24 50 -38
62 -74 61 -24 -1 -24 -1 3 -9z"/>
<path d="M673 340 c-101 -61 -47 -190 81 -190 18 0 41 -7 52 -15 28 -21 40
-18 19 5 -10 11 -30 20 -44 20 -74 0 -151 52 -151 101 0 50 95 96 168 83 44
-8 102 -62 102 -94 0 -12 -14 -35 -30 -50 -25 -23 -29 -32 -21 -52 6 -13 10
-17 10 -7 1 8 12 30 26 49 28 38 32 85 10 116 -37 53 -160 72 -222 34z"/>
<path d="M150 341 c0 -13 29 -35 37 -28 7 8 -15 37 -28 37 -5 0 -9 -4 -9 -9z"/>
<path d="M131 308 c-1 -29 29 -68 52 -68 18 0 64 -50 85 -91 23 -46 65 -60 93
-33 l20 20 -21 19 c-26 23 -39 12 -16 -14 12 -14 14 -21 6 -26 -19 -12 -61 17
-67 46 -7 34 -53 80 -96 94 -24 7 -35 19 -44 45 -11 33 -12 34 -12 8z"/>
</g>
</svg>
